<?xml version="1.0" encoding="utf-8"?>
<!-- Generator: Adobe Illustrator 23.0.1, SVG Export Plug-In . SVG Version: 6.00 Build 0)  -->
<svg version="1.0" id="Capa_1" xmlns="http://www.w3.org/2000/svg" xmlns:xlink="http://www.w3.org/1999/xlink" x="0px" y="0px"
	 viewBox="0 0 90 90" style="enable-background:new 0 0 90 90;" xml:space="preserve">
<style type="text/css">
	.st0{fill:#9369C9;}
	.st1{fill:#FFFFFF;}
</style>
<circle class="st0" cx="45.07" cy="44.95" r="45.05"/>
<path class="st1" d="M23.72,59.83c0.61-0.78,1.68-1.02,2.39-0.54l3.21,2.17c0.71,0.48,0.79,1.5,0.18,2.28l-4.4,5.62
	c2.97,0.41,6.39-0.61,9.16-3.03c0.66-0.57,1.24-1.19,1.75-1.85c0.01-0.01,0.01-0.01,0.02-0.02c0.35-0.39,0.62-0.82,0.84-1.25
	c0.22-0.44,0.37-0.91,0.45-1.37l0,0c0.04-0.32,0.09-0.6,0.09-0.9c0.08-0.83,0.21-2.04,0.37-2.77c0.25-1.19,1.11-2.78,1.11-2.78
	l8.05-7.03l0.01,0.01l7.95-6.93c0,0,1.95-1.52,3.9-1.56c1.95-0.05,3.5,0.06,3.5,0.06l0,0c0.95,0.08,1.97-0.15,2.89-0.67
	c0.55-0.31,1.05-0.7,1.49-1.2c0,0,0,0,0,0c3.76-3.48,4.95-8.52,3.05-12.12l-4.42,5.62c-0.61,0.78-1.68,1.02-2.39,0.54l-3.2-2.17
	c-0.71-0.48-0.78-1.5-0.17-2.28l4.41-5.62c-2.97-0.41-6.39,0.6-9.17,3.02c-0.66,0.57-1.24,1.19-1.75,1.85
	c-0.01,0.01-0.01,0.01-0.02,0.02c-0.35,0.39-0.62,0.82-0.84,1.25c-0.22,0.44-0.37,0.91-0.46,1.37l0,0c-0.04,0.32-0.09,0.6-0.09,0.9
	c-0.08,0.83-0.22,2.04-0.37,2.77c-0.25,1.19-1.11,2.78-1.11,2.78l-8.07,7.03L42.06,43l-7.94,6.94c0,0-1.95,1.52-3.9,1.57
	c-1.95,0.05-3.5-0.05-3.5-0.05l0,0c-0.95-0.08-1.97,0.16-2.89,0.67c-0.55,0.31-1.05,0.7-1.49,1.2c0,0,0,0,0,0
	c-3.75,3.48-4.94,8.53-3.03,12.13L23.72,59.83z"/>
<path class="st1" d="M27.29,18.6l0.5,0.44l4.13,3.71c1.2,1.07,1.58,2.53,1.29,3.76l18.61,21.1l-2.42,2.24L30.76,28.73
	c-1.24,0.16-2.65-0.38-3.56-1.66l-3.06-4.67l-0.37-0.56L27.29,18.6z"/>
<path class="st1" d="M50.95,47.27l1.45-1.33c0.34-0.31,0.9-0.28,1.28,0.15l0.18,0.2c0.02,0.02,0.03,0.06,0.05,0.08
	c0.01,0.01,0.01,0.02,0.01,0.03c0.01,0.02,0.02,0.04,0.03,0.05c0.01,0.01,0.01,0.02,0.02,0.04c0.01,0.01,0.02,0.03,0.02,0.04
	c0.01,0.01,0.01,0.03,0.02,0.04c0,0,0,0.01,0,0.01c0.02,0.04,0.04,0.08,0.05,0.13c0,0,0,0.01,0,0.01c0.01,0.02,0.01,0.04,0.02,0.06
	v0c0,0,0,0.01,0,0.01c0,0.01,0.01,0.02,0.01,0.03l0.02,0.02c0,0.01,0.03,0.04,0.03,0.05l0.2-0.18c0.19-0.18,0.5-0.18,0.71,0.07
	l14.16,16.07c1.68,1.91,1.9,4.69,0.41,6.07l-1.75,1.61c-1.5,1.38-4.17,0.85-5.85-1.06L47.87,53.4c-0.21-0.24-0.19-0.55,0-0.72
	l0.29-0.27l0,0c-0.01,0.01-0.05-0.04-0.07-0.04c-0.01,0-0.02-0.02-0.03-0.02c-0.02-0.01-0.04-0.02-0.06-0.03
	c-0.01,0-0.02-0.01-0.03-0.02c-0.02-0.01-0.04-0.02-0.06-0.04c-0.02-0.01-0.04-0.02-0.05-0.03c-0.01-0.01-0.02-0.02-0.03-0.02
	c-0.01-0.01-0.03-0.02-0.04-0.03c-0.01-0.01-0.02-0.02-0.03-0.02c-0.02-0.01-0.03-0.03-0.05-0.04c-0.01-0.01,0-0.03-0.01-0.04
	c-0.02-0.02-0.03-0.06-0.05-0.08l-0.18-0.2c-0.36-0.41-0.4-0.89-0.12-1.21l0.86-0.8l0.52-0.48l0,0l2.2-2.04L50.95,47.27z"/>
<path class="st0" d="M66.99,65.95c0.43,0.48,1.09,0.58,1.46,0.24c0.38-0.35,0.35-1.03-0.08-1.51l-12.9-14.65
	c-0.42-0.48-1.08-0.58-1.46-0.24c-0.38,0.35-0.35,1.03,0.08,1.51L66.99,65.95z"/>
<path class="st0" d="M63.87,68.82c0.43,0.48,1.06,0.6,1.44,0.26c0.38-0.35,0.33-1.01-0.1-1.49l-12.9-14.65
	c-0.42-0.48-1.06-0.6-1.44-0.26c-0.38,0.35-0.33,1.01,0.1,1.49L63.87,68.82z"/>
</svg>
