<?xml version="1.0" encoding="utf-8"?>
<!-- Generator: Adobe Illustrator 23.0.1, SVG Export Plug-In . SVG Version: 6.00 Build 0)  -->
<svg version="1.0" id="Capa_1" xmlns="http://www.w3.org/2000/svg" xmlns:xlink="http://www.w3.org/1999/xlink" x="0px" y="0px"
	 viewBox="0 0 90 90" style="enable-background:new 0 0 90 90;" xml:space="preserve">
<style type="text/css">
	.st0{fill:#9369C9;}
	.st1{fill:#FFFFFF;}
</style>
<circle class="st0" cx="45" cy="45" r="45"/>
<path class="st1" d="M17.65,42.15c0.44-0.52,0.85-1.08,1.33-1.55c3.42-3.29,6.85-6.56,10.28-9.84c2.63-2.51,5.26-5,7.89-7.5
	c1.74-1.66,3.47-3.35,5.23-4.99c1.55-1.45,3.72-1.44,5.27,0.02c2.66,2.52,5.29,5.06,7.94,7.59c0.05,0.05,0.11,0.09,0.24,0.19
	c0.02-0.24,0.04-0.41,0.04-0.58c0-2.19,0-4.37,0-6.56c0-1.24,0.34-1.62,1.4-1.62c1.97,0,3.93,0,5.9,0c1.01,0,1.37,0.41,1.37,1.57
	c0,4.99,0.01,9.98-0.01,14.97c0,0.41,0.11,0.68,0.38,0.93c2.24,2.12,4.49,4.24,6.71,6.38c0.28,0.27,0.49,0.65,0.73,0.97
	c0,0.23,0,0.47,0,0.7c-0.71,1-1.42,2.01-2.14,3.01c-0.62,0.86-1.18,0.94-1.94,0.21c-2.04-1.93-4.06-3.89-6.1-5.83
	c-1.79-1.71-3.58-3.41-5.36-5.12c-1.84-1.76-3.69-3.52-5.53-5.28c-1.99-1.9-3.98-3.8-5.96-5.71c-0.23-0.22-0.4-0.23-0.63,0
	c-1.81,1.75-3.63,3.49-5.45,5.24c-1.81,1.73-3.62,3.46-5.43,5.18c-1.82,1.74-3.64,3.48-5.46,5.22c-2.03,1.94-4.07,3.88-6.1,5.83
	c-0.23,0.22-0.46,0.46-0.71,0.66c-0.57,0.46-1.09,0.43-1.55-0.18c-0.8-1.06-1.55-2.15-2.33-3.23
	C17.65,42.62,17.65,42.38,17.65,42.15z"/>
<path class="st1" d="M49.34,67.05c0-4.96,0-9.9,0-14.87c-0.19-0.01-0.33-0.02-0.48-0.02c-2.58,0-5.16,0.01-7.73-0.01
	c-0.39,0-0.49,0.12-0.49,0.56c0.01,4.56,0.01,9.12,0.01,13.67c0,0.21,0,0.43,0,0.71c-0.2,0-0.36,0-0.51,0c-4.08,0-8.16,0-12.23,0
	c-1.57,0-2.44-0.98-2.44-2.78c0-5.99,0-11.99-0.01-17.98c0-0.45,0.14-0.72,0.44-1c3.02-2.83,6.02-5.68,9.02-8.52
	c2.65-2.5,5.3-5,7.95-7.5c0.7-0.67,1.4-1.34,2.12-2.03c1.07,1.01,2.11,1.99,3.15,2.98c3.04,2.87,6.08,5.74,9.12,8.62
	c2.33,2.2,4.67,4.41,6.99,6.63c0.14,0.14,0.26,0.42,0.26,0.63c0.01,6.14,0.02,12.29,0,18.43c0,1.48-0.89,2.51-2.17,2.52
	c-4.25,0.02-8.5,0.01-12.76,0.01C49.54,67.09,49.48,67.07,49.34,67.05z"/>
</svg>
