<?xml version="1.0" encoding="utf-8"?>
<!-- Generator: Adobe Illustrator 23.0.1, SVG Export Plug-In . SVG Version: 6.00 Build 0)  -->
<svg version="1.0" id="Capa_1" xmlns="http://www.w3.org/2000/svg" xmlns:xlink="http://www.w3.org/1999/xlink" x="0px" y="0px"
	 viewBox="0 0 90 90" style="enable-background:new 0 0 90 90;" xml:space="preserve">
<style type="text/css">
	.st0{fill:#9369C9;}
	.st1{fill:#FFFFFF;}
</style>
<circle class="st0" cx="44.72" cy="45.28" r="44.72"/>
<path class="st1" d="M51.19,25.5c0,4.84-3.92,8.76-8.76,8.76c-4.84,0-8.76-3.92-8.76-8.76c0-4.84,3.92-8.76,8.76-8.76
	C47.26,16.74,51.19,20.66,51.19,25.5z"/>
<path class="st0" d="M42.43,17.19c-4.59,0-8.3,3.72-8.3,8.3c0,4.59,3.72,8.3,8.3,8.3c4.59,0,8.3-3.72,8.3-8.3
	C50.73,20.91,47.01,17.19,42.43,17.19z M42.43,33.5c-4.42,0-8-3.58-8-8c0-4.42,3.58-8,8-8c4.42,0,8,3.58,8,8
	C50.43,29.91,46.85,33.5,42.43,33.5z"/>
<path class="st0" d="M48.41,25.5c0,3.3-2.68,5.98-5.98,5.98c-3.3,0-5.98-2.68-5.98-5.98c0-3.3,2.68-5.98,5.98-5.98
	C45.73,19.52,48.41,22.19,48.41,25.5z"/>
<path class="st1" d="M48.05,25.5c0,3.11-2.52,5.62-5.62,5.62c-3.11,0-5.62-2.52-5.62-5.62c0-3.11,2.52-5.62,5.62-5.62
	C45.53,19.87,48.05,22.39,48.05,25.5z"/>
<path class="st0" d="M41.95,28.75c-0.7-0.03-1.37-0.19-2.01-0.47V26.7c0.37,0.19,0.77,0.34,1.2,0.47c0.43,0.13,0.81,0.19,1.14,0.19
	c0.27,0,0.47-0.03,0.59-0.1c0.13-0.06,0.19-0.17,0.19-0.33c0-0.1-0.05-0.19-0.14-0.27c-0.09-0.07-0.24-0.16-0.45-0.25
	c-0.21-0.09-0.5-0.2-0.85-0.33c-0.4-0.15-0.73-0.32-0.98-0.5c-0.25-0.19-0.43-0.39-0.54-0.62c-0.11-0.23-0.17-0.52-0.17-0.86
	c0-0.52,0.17-0.93,0.5-1.23c0.34-0.3,0.84-0.48,1.51-0.55v-1.06h0.99v1.05c0.63,0.03,1.27,0.19,1.91,0.47l-0.57,1.36
	c-0.66-0.3-1.26-0.45-1.8-0.45c-0.25,0-0.43,0.03-0.54,0.09c-0.1,0.06-0.15,0.15-0.15,0.27c0,0.1,0.04,0.19,0.11,0.26
	c0.07,0.07,0.2,0.14,0.39,0.23c0.18,0.08,0.44,0.18,0.77,0.29c0.66,0.23,1.14,0.5,1.43,0.8c0.29,0.3,0.43,0.69,0.43,1.16
	c0,0.53-0.17,0.97-0.51,1.3c-0.34,0.33-0.83,0.54-1.48,0.62V30h-0.99V28.75z"/>
<path class="st1" d="M57.34,35.8l-2.77,6.68c-0.5,1.2-1.71,1.95-3,1.83c-0.61-0.06-1.34-0.22-2.2-0.54
	c-0.54-0.2-1.01-0.52-1.45-0.86c-0.77-0.59-1.05-1.63-0.68-2.53l0,0c1.68-4.05,6.15-6.06,10.08-4.6
	C57.34,35.78,57.35,35.79,57.34,35.8z"/>
<path class="st1" d="M36.27,70.05h-5c-0.93,0-1.69-0.76-1.69-1.69v-2.28c0-0.93,0.76-1.69,1.69-1.69h5c0.93,0,1.69,0.76,1.69,1.69
	v2.28C37.96,69.29,37.2,70.05,36.27,70.05z"/>
<path class="st1" d="M54.99,70.05h-5c-0.93,0-1.69-0.76-1.69-1.69v-2.28c0-0.93,0.76-1.69,1.69-1.69h5c0.93,0,1.69,0.76,1.69,1.69
	v2.28C56.68,69.29,55.92,70.05,54.99,70.05z"/>
<path class="st1" d="M24.4,51.82c-0.13,0.72-1.35,1.92-3.43,0.43c0.36-0.24,0.81-0.49,1.09-1.18l0,0c0.35-0.88,0.07-1.74-0.45-2.35
	c-0.45-0.53-1.14-0.94-1.77-1.01c-1.97-0.07-1.26,2.95,0.05,4.28l0.08,0.08c0.07,0.07,0.12,0.13,0.17,0.18
	c-0.3,0.3-0.84,0.66-1.45,0.85c-0.19,0.06-0.33,0.26-0.31,0.49c0,0,0,0,0,0.01c0.01,0.08,0.06,0.15,0.14,0.16
	c0.22,0.04,0.88,0.03,2.04-1.09c0.83,0.75,1.88,1.34,2.73,1.32c0.9-0.02,1.85-0.55,2.01-1.73L24.4,51.82z M20.56,48.86
	c0.22,0.12,0.41,0.31,0.53,0.56c0.07,0.15,0.12,0.3,0.17,0.43c0.09,0.29,0.07,0.62-0.06,0.89c-0.27,0.57-0.6,0.95-0.6,0.95
	C19.18,50.79,18.93,48.01,20.56,48.86z"/>
<path class="st1" d="M61.91,56.61v-7.78c0-0.46,0.36-0.84,0.81-0.84h2.11c0,0,0,0,0,0c1.52,0.69,2.61,2.55,2.61,4.74
	c0,2.19-1.09,4.06-2.62,4.75c0-0.01,0-0.02-0.01-0.03h-2.09c-0.22,0-0.43-0.09-0.57-0.25C62,57.05,61.91,56.84,61.91,56.61z"/>
<path class="st1" d="M64.21,52.72c0,1.88-0.38,3.69-1.09,5.38c-2.77,6.6-10.5,11.35-19.6,11.35c-11.43,0-20.7-7.49-20.7-16.73
	c0-4.38,2.08-8.37,5.49-11.35c3.78-3.31,9.19-5.38,15.2-5.38C54.94,35.99,64.21,43.48,64.21,52.72z"/>
<path class="st1" d="M61.9,37.26l-3.37,6.39c-0.6,1.14-1.88,1.78-3.15,1.54c-0.6-0.11-1.31-0.34-2.14-0.74
	c-0.52-0.25-0.96-0.61-1.37-0.99c-0.71-0.66-0.89-1.72-0.44-2.58l0,0c2.05-3.88,6.68-5.47,10.46-3.66
	C61.91,37.23,61.91,37.25,61.9,37.26z"/>
<g>
	<path class="st0" d="M48.65,41.17c-3.79-1.67-8.1-1.67-11.89,0c-0.29,0.13-0.63,0.02-0.77-0.25l0,0c-0.14-0.27,0.01-0.62,0.32-0.76
		c4.07-1.8,8.71-1.8,12.78,0c0.32,0.14,0.46,0.49,0.32,0.76l0,0C49.28,41.19,48.94,41.3,48.65,41.17z"/>
</g>
</svg>
