<?xml version="1.0" encoding="utf-8"?>
<!-- Generator: Adobe Illustrator 23.0.1, SVG Export Plug-In . SVG Version: 6.00 Build 0)  -->
<svg version="1.0" id="Capa_1" xmlns="http://www.w3.org/2000/svg" xmlns:xlink="http://www.w3.org/1999/xlink" x="0px" y="0px"
	 viewBox="0 0 90 90" style="enable-background:new 0 0 90 90;" xml:space="preserve">
<style type="text/css">
	.st0{fill:#9369C9;}
	.st1{fill:#FFFFFF;}
</style>
<circle class="st0" cx="45" cy="44.65" r="44.65"/>
<path class="st1" d="M54.97,30.01l-2.69-4.69c-0.34-0.6-1.24-0.69-1.84-0.34l-2.7,1.55l-0.01,0.01c-1.12-1.16-2.59-2.38-4.15-3.24
	l0.8-3.02c0.18-0.67-0.21-1.36-0.88-1.54l-5.22-1.41c-0.67-0.18-1.35,0.21-1.53,0.88l-0.81,3l0.01,0.01
	c-1.74-0.06-3.28,0.03-5.19,0.64l-1.55-2.7c-0.34-0.6-1.18-0.83-1.78-0.49l-4.69,2.69c-0.6,0.34-0.54,1.02-0.2,1.62l1.55,2.7
	l0.01,0.01c-1.5,1.32-2.48,2.65-3.34,4.21l-3.12-0.74c-0.67-0.18-1.35,0.22-1.53,0.88l-1.41,5.22c-0.18,0.67,0.22,1.36,0.88,1.54
	l3.01,0.82l0.02,0.02c-0.06,1.74,0.06,3.33,0.67,5.24l-2.7,1.55c-0.6,0.34-0.69,0.96-0.34,1.56l2.69,4.69
	c0.34,0.6,0.88,0.75,1.48,0.41l2.7-1.55l0.01-0.01c1.32,1.5,2.62,2.43,4.18,3.29l-0.77,3.07c-0.18,0.67,0.22,1.35,0.89,1.53
	l5.23,1.41c0.67,0.18,1.37-0.22,1.55-0.89l0.84-3.02l0.07-0.05c1.74,0.06,3.43-0.11,5.34-0.72l1.55,2.7c0.34,0.6,0.81,0.9,1.41,0.56
	l4.69-2.69c0.6-0.34,0.9-1.09,0.56-1.69l-1.55-2.7l-0.01-0.01c1.5-1.32,2.33-2.56,3.19-4.13l2.97,0.83
	c0.67,0.18,1.35-0.22,1.53-0.88l1.41-5.23c0.18-0.67-0.22-1.37-0.89-1.55l-3.01-0.83l-0.04-0.05c0.06-1.74-0.09-3.38-0.7-5.29
	l2.7-1.55C54.87,31.29,55.32,30.61,54.97,30.01z M29.32,33.23c0.6-0.76,1.35-1.42,2.24-1.93c1.11-0.64,2.31-0.97,3.5-1.03
	c0.13-0.01,0.25-0.01,0.38-0.01c0.06,0,0.13,0,0.19,0c0.13,0,0.25,0.01,0.38,0.02c0.12,0.01,0.25,0.02,0.37,0.04
	c0.06,0.01,0.12,0.02,0.19,0.02c0.25,0.04,0.49,0.08,0.73,0.14c0.06,0.01,0.12,0.03,0.18,0.05c0.12,0.03,0.24,0.07,0.36,0.11
	c0.06,0.02,0.12,0.04,0.18,0.06c0.12,0.04,0.23,0.08,0.35,0.13c0.06,0.02,0.12,0.05,0.17,0.07c0.08,0.03,0.16,0.07,0.24,0.11
	c0.09,0.04,0.18,0.09,0.27,0.13c0.11,0.06,0.22,0.12,0.33,0.18c0.14,0.08,0.29,0.17,0.43,0.27c0.07,0.05,0.14,0.09,0.21,0.14
	c0.1,0.07,0.2,0.15,0.3,0.23c0.15,0.12,0.29,0.24,0.43,0.37c0.09,0.09,0.19,0.18,0.28,0.27c0.45,0.46,0.85,0.98,1.18,1.57
	c0.6,1.05,0.93,2.18,1.02,3.31c0.01,0.19,0.02,0.38,0.02,0.57c0,0.13,0,0.25-0.01,0.38c-0.01,0.13-0.02,0.25-0.03,0.37
	c-0.03,0.31-0.08,0.62-0.15,0.92c-0.03,0.12-0.06,0.24-0.09,0.36c-0.05,0.18-0.1,0.36-0.17,0.54c-0.04,0.12-0.08,0.23-0.13,0.35
	c-0.02,0.06-0.05,0.12-0.07,0.17c-0.05,0.11-0.1,0.23-0.16,0.34c-0.08,0.17-0.17,0.33-0.27,0.5c-0.06,0.11-0.13,0.22-0.2,0.32
	c-0.65,1-1.54,1.87-2.65,2.5c-0.93,0.54-1.93,0.86-2.93,0.98c-0.13,0.02-0.25,0.03-0.38,0.04c-0.38,0.03-0.75,0.03-1.13,0
	c-0.12-0.01-0.25-0.02-0.37-0.04c-0.06-0.01-0.12-0.02-0.19-0.02c-0.19-0.03-0.37-0.06-0.55-0.1c-2.07-0.46-3.95-1.75-5.08-3.73
	c-0.54-0.94-0.86-1.95-0.98-2.97c-0.05-0.44-0.06-0.87-0.04-1.31c0.01-0.14,0.02-0.29,0.03-0.43c0.04-0.36,0.1-0.71,0.19-1.06
	c0.09-0.35,0.2-0.69,0.33-1.03c0.02-0.06,0.05-0.12,0.07-0.17c0.05-0.11,0.1-0.23,0.16-0.34c0.05-0.11,0.11-0.22,0.17-0.33
	c0.12-0.22,0.25-0.43,0.4-0.64c0.05-0.07,0.09-0.13,0.14-0.2C29.21,33.37,29.27,33.3,29.32,33.23z"/>
<path class="st1" d="M71.31,49.22l-2.68-2.08c-0.34-0.27-0.88-0.1-1.15,0.24l-1.2,1.54l-0.01,0.01c-0.93-0.41-2.07-0.77-3.18-0.89
	l-0.25-1.94c-0.05-0.43-0.45-0.74-0.88-0.68l-3.37,0.42c-0.43,0.05-0.73,0.45-0.68,0.88l0.24,1.93l0.01,0
	c-1.02,0.38-1.9,0.8-2.86,1.6l-1.54-1.2c-0.34-0.27-0.88-0.2-1.15,0.14l-2.08,2.68c-0.27,0.34-0.07,0.72,0.27,0.99l1.54,1.2
	l0.01,0.01c-0.56,1.12-0.81,2.13-0.94,3.24l-1.99,0.31c-0.43,0.05-0.74,0.45-0.68,0.88l0.42,3.37c0.05,0.43,0.45,0.74,0.88,0.68
	l1.94-0.24l0.02,0.01c0.38,1.02,0.82,1.92,1.63,2.88l-1.2,1.54c-0.27,0.34-0.17,0.72,0.17,0.99l2.68,2.08
	c0.34,0.27,0.69,0.23,0.95-0.11l1.2-1.54l0.01-0.01c1.12,0.56,2.1,0.79,3.21,0.92l0.28,1.97c0.05,0.43,0.45,0.73,0.88,0.68
	l3.37-0.43c0.43-0.05,0.74-0.46,0.69-0.89l-0.23-1.95l0.03-0.05c1.02-0.38,1.96-0.88,2.93-1.69l1.54,1.2
	c0.34,0.27,0.69,0.33,0.95-0.01l2.08-2.68c0.27-0.34,0.26-0.85-0.08-1.11l-1.54-1.2l-0.01-0.01c0.56-1.12,0.74-2.04,0.87-3.15
	l1.92-0.22c0.43-0.05,0.73-0.45,0.68-0.88l-0.42-3.37c-0.05-0.43-0.45-0.74-0.88-0.69l-1.95,0.23l-0.03-0.02
	c-0.38-1.02-0.85-1.94-1.66-2.91l1.2-1.54C71.56,49.99,71.66,49.49,71.31,49.22z M57.19,57.19c0.17-0.58,0.45-1.15,0.84-1.66
	c0.49-0.63,1.11-1.11,1.79-1.43c0.07-0.03,0.14-0.06,0.22-0.09c0.04-0.01,0.07-0.03,0.11-0.04c0.07-0.03,0.15-0.05,0.22-0.08
	c0.07-0.02,0.15-0.05,0.23-0.07c0.04-0.01,0.08-0.02,0.11-0.03c0.15-0.04,0.31-0.07,0.46-0.09c0.04-0.01,0.08-0.01,0.12-0.02
	c0.08-0.01,0.16-0.02,0.23-0.02c0.04,0,0.08-0.01,0.12-0.01c0.08,0,0.16-0.01,0.23-0.01c0.04,0,0.08,0,0.12,0
	c0.06,0,0.11,0,0.17,0.01c0.06,0,0.12,0.01,0.19,0.01c0.08,0.01,0.16,0.02,0.23,0.03c0.1,0.01,0.21,0.03,0.31,0.05
	c0.05,0.01,0.1,0.02,0.15,0.03c0.08,0.02,0.15,0.04,0.23,0.06c0.11,0.03,0.23,0.07,0.34,0.11c0.08,0.03,0.15,0.06,0.22,0.09
	c0.37,0.16,0.73,0.37,1.06,0.63c0.6,0.47,1.06,1.04,1.38,1.68c0.05,0.11,0.1,0.21,0.15,0.32c0.03,0.07,0.06,0.15,0.08,0.22
	c0.03,0.07,0.05,0.15,0.07,0.22c0.06,0.19,0.1,0.38,0.13,0.57c0.01,0.08,0.02,0.15,0.03,0.23c0.01,0.12,0.02,0.23,0.03,0.35
	c0,0.08,0.01,0.16,0.01,0.23c0,0.04,0,0.08,0,0.12c0,0.08,0,0.16-0.01,0.23c-0.01,0.12-0.02,0.23-0.04,0.35
	c-0.01,0.08-0.02,0.16-0.04,0.23c-0.14,0.74-0.45,1.45-0.94,2.08c-0.41,0.53-0.92,0.96-1.47,1.27c-0.07,0.04-0.14,0.08-0.21,0.11
	c-0.21,0.11-0.43,0.19-0.66,0.27c-0.07,0.02-0.15,0.05-0.23,0.07c-0.04,0.01-0.08,0.02-0.11,0.03c-0.11,0.03-0.23,0.05-0.34,0.07
	c-1.31,0.23-2.71-0.08-3.84-0.96c-0.54-0.42-0.97-0.93-1.28-1.49c-0.13-0.24-0.24-0.49-0.33-0.75c-0.03-0.09-0.06-0.17-0.08-0.26
	c-0.06-0.22-0.11-0.44-0.14-0.66C57.02,59.01,57,58.78,57,58.55c0-0.04,0-0.08,0-0.12c0-0.08,0-0.16,0.01-0.23
	c0.01-0.08,0.01-0.16,0.02-0.23c0.02-0.16,0.04-0.31,0.08-0.47c0.01-0.05,0.02-0.1,0.04-0.15C57.16,57.3,57.17,57.24,57.19,57.19z"
	/>
</svg>
